<?xml version="1.0" encoding="utf-8"?>
<!-- Generator: Adobe Illustrator 23.0.1, SVG Export Plug-In . SVG Version: 6.00 Build 0)  -->
<svg version="1.1" id="Layer_1" xmlns="http://www.w3.org/2000/svg" xmlns:xlink="http://www.w3.org/1999/xlink" x="0px" y="0px"
	 viewBox="0 0 284 117.7" style="enable-background:new 0 0 284 117.7;" xml:space="preserve">
<style type="text/css">
	.st0{fill:#929497;}
	.st1{fill:url(#XMLID_2_);}
	.st2{fill:#B9A274;}
</style>
<g id="Group_4" transform="translate(-190 -488.345)">
	<g id="logo_ar" transform="translate(487.314 461.59)">
		<g id="XMLID_319_" transform="translate(-294.182 26.755)">
			<g id="XMLID_321_" transform="translate(0 37.272)">
				<g id="XMLID_355_" transform="translate(0 22.988)">
					<g id="XMLID_356_">
						<path id="XMLID_317_" class="st0" d="M5.4,4.5L3.9,4.1C3.5,4.1,3,3.9,2.7,3.7C2.4,3.5,2.3,3.3,2.3,3c0-0.2,0-0.3,0.1-0.4
							s0.1-0.2,0.3-0.3C2.9,2.1,3.1,2,3.3,2c0.7-0.1,1.3-0.1,2,0c0.3,0.1,0.6,0.1,0.9,0.2c0.2,0.1,0.4,0.2,0.6,0.3
							C6.9,2.7,7,2.8,7.1,2.8l0.1,0.1l0.1-0.1l0.4-0.4C7.9,2.1,8,1.9,8,1.7c0-0.2-0.1-0.3-0.2-0.6C7.7,1,7.5,0.9,7.4,0.8
							C7.3,0.8,7.1,0.7,7,0.6S6.7,0.4,6.4,0.3C6.1,0.2,5.8,0.2,5.5,0.1C5.1,0.1,4.7,0,4.2,0C3.6,0,3,0.1,2.5,0.2
							C2,0.3,1.6,0.6,1.2,0.9c-0.3,0.2-0.6,0.6-0.7,1C0.4,2.3,0.4,2.6,0.3,3c0,0.4,0.1,0.8,0.2,1.1C0.8,4.4,1,4.7,1.2,4.9
							c0.3,0.2,0.7,0.4,1,0.6C2.6,5.6,3,5.7,3.3,5.8L4.8,6C5,6,5.2,6.1,5.5,6.1c0.2,0.1,0.3,0.1,0.4,0.2s0.2,0.2,0.2,0.3
							c0.1,0.1,0.1,0.2,0.1,0.4c0,0.3-0.1,0.6-0.4,0.8c-0.5,0.3-1,0.4-1.6,0.3c-0.4,0-0.8,0-1.1-0.1C2.8,8,2.5,8,2.1,7.9
							C1.9,7.9,1.7,7.7,1.5,7.6C1.2,7.5,1.1,7.4,1,7.4L0.9,7.2L0,8.8l0.1,0.1c0.2,0.1,0.4,0.2,0.6,0.3C1,9.4,1.3,9.5,1.6,9.6
							c0.3,0.1,0.8,0.2,1.2,0.3c0.5,0.1,1,0.1,1.5,0.1c0.6,0,1.1-0.1,1.7-0.2c0.4-0.1,0.9-0.3,1.2-0.6c0.3-0.3,0.6-0.6,0.8-1
							C8.1,7.9,8.2,7.5,8.1,7c0.1-0.7-0.2-1.4-0.8-1.9C6.7,4.9,6,4.6,5.4,4.5z"/>
						<path id="XMLID_389_" class="st0" d="M18.5,1.8c-0.4-0.4-1-0.8-1.6-1c-1.3-0.6-2.7-0.6-4,0c-0.6,0.2-1.1,0.6-1.6,1
							c-0.4,0.5-0.8,1-1.1,1.6C10,4,9.9,4.7,9.9,5.4c0,0.7,0.1,1.4,0.3,2c0.3,0.6,0.6,1.1,1.1,1.6c0.4,0.4,1,0.8,1.6,1
							c0.6,0.2,1.3,0.4,2,0.3c0.7,0,1.4-0.1,2-0.3c0.6-0.2,1.1-0.6,1.6-1c0.4-0.5,0.8-1,1.1-1.6C19.9,6.7,20,6,20,5.4
							c0-0.7-0.1-1.4-0.3-2C19.3,2.8,19,2.3,18.5,1.8z M18,5.4c0,0.4-0.1,0.8-0.2,1.2c-0.1,0.4-0.4,0.7-0.7,1
							c-0.3,0.3-0.6,0.5-1,0.7c-0.8,0.3-1.7,0.3-2.5,0c-0.4-0.1-0.7-0.4-1-0.7l-0.7-1c-0.1-0.4-0.2-0.8-0.2-1.2
							c0-0.5,0.1-0.9,0.2-1.3c0.1-0.4,0.3-0.7,0.7-1c0.3-0.3,0.6-0.5,1-0.7c0.8-0.3,1.7-0.3,2.5,0c0.4,0.1,0.7,0.4,1,0.7
							c0.2,0.3,0.5,0.6,0.7,1C17.9,4.5,17.9,4.9,18,5.4L18,5.4z"/>
						<path id="XMLID_314_" class="st0" d="M28.9,7.8l-0.1,0.1c-0.3,0.1-0.6,0.3-0.9,0.3c-0.4,0.1-0.9,0.2-1.3,0.2
							c-0.4,0-0.8-0.1-1.2-0.2c-0.4-0.1-0.7-0.3-1-0.6c-0.3-0.2-0.6-0.6-0.7-1c-0.1-0.4-0.2-0.9-0.2-1.3c0-0.5,0.1-0.9,0.2-1.3
							c0.1-0.4,0.3-0.8,0.7-1c0.3-0.2,0.6-0.5,0.9-0.7c0.7-0.2,1.3-0.2,2-0.1c0.2,0.1,0.4,0.1,0.7,0.2s0.3,0.2,0.6,0.3l0.3,0.3
							l0.1,0.1L29,3.1c0.1,0,0.1-0.1,0.2-0.1l0.2-0.2c0.1-0.1,0.1-0.2,0.2-0.3s0.1-0.2,0.1-0.4c0-0.2,0-0.3-0.1-0.4
							c-0.1-0.2-0.3-0.3-0.6-0.6c-0.3-0.2-0.6-0.3-1-0.4c-0.5-0.1-1-0.1-1.6-0.1c-0.6,0-1.3,0.1-1.9,0.3c-0.6,0.2-1.1,0.6-1.6,1
							c-0.4,0.5-0.8,1-1.1,1.6c-0.3,0.7-0.4,1.4-0.4,2.1c0,0.7,0.1,1.5,0.4,2.1c0.2,0.6,0.6,1.1,1.1,1.6c0.4,0.4,1,0.8,1.6,0.9
							c0.6,0.2,1.3,0.3,1.9,0.3c0.4,0,0.8,0,1.2-0.1c0.3-0.1,0.7-0.1,1-0.2l0.7-0.3c0.2-0.1,0.3-0.2,0.4-0.2L30,9.4L28.9,7.8z"/>
						<path id="XMLID_313_" class="st0" d="M32.6,0.7c-0.2,0-0.4-0.1-0.6-0.1c-0.3,0-0.5,0.1-0.8,0.2c-0.2,0.1-0.4,0.4-0.3,0.7V10
							h1.9V0.8h-0.1C32.8,0.8,32.7,0.7,32.6,0.7z"/>
						<path id="XMLID_384_" class="st0" d="M43.9,8.8c-0.2-0.5-0.4-1.1-0.7-1.6C43,6.7,42.7,6,42.4,5.4c-0.2-0.7-0.6-1.3-0.8-1.9
							s-0.6-1.1-0.8-1.7l-0.6-1.1l0,0l-0.1-0.1c-0.1,0-0.1-0.1-0.2-0.1s-0.2-0.1-0.3-0.1h-0.3c-0.3,0-0.6,0.1-0.9,0.2
							c-0.3,0.2-0.5,0.5-0.6,0.8c-0.3,0.7-0.7,1.5-1,2.2c-0.3,0.7-0.6,1.5-0.9,2.2c-0.3,0.7-0.6,1.5-0.9,2.1
							c-0.2,0.7-0.6,1.3-0.8,1.9L34.2,10h2V9.9c0.1-0.3,0.2-0.7,0.3-1c0.1-0.3,0.3-0.8,0.4-1.2h4.2c0.1,0.1,0.1,0.3,0.2,0.4
							c0.1,0.2,0.2,0.4,0.2,0.7l0.2,0.7C42,9.7,42,9.8,42.1,9.9V10h2.1l-0.1-0.2C44,9.5,44,9.1,43.9,8.8z M40.5,5.9h-2.8
							c0.1-0.2,0.2-0.6,0.3-0.8c0.2-0.4,0.3-0.7,0.4-1.1c0.1-0.3,0.3-0.7,0.4-1c0.1-0.2,0.1-0.3,0.2-0.4c0,0.1,0.1,0.2,0.1,0.3
							c0.1,0.3,0.3,0.7,0.4,1s0.3,0.8,0.4,1.1C40.3,5.3,40.4,5.6,40.5,5.9L40.5,5.9z"/>
						<path id="XMLID_310_" class="st0" d="M47.3,0.8h-0.1c-0.1,0-0.2-0.1-0.3-0.1c-0.2,0-0.4-0.1-0.6-0.1c-0.3,0-0.5,0.1-0.8,0.2
							c-0.2,0.1-0.4,0.4-0.3,0.7V10h6.7V8.3h-4.7V0.8H47.3z"/>
						<path id="XMLID_380_" class="st0" d="M64.4,1.8c-0.5-0.5-1.1-0.8-1.8-1c-0.8-0.2-1.5-0.3-2.3-0.3h-1.5c-0.4,0-0.7,0.1-0.9,0.1
							c-0.2,0.1-0.4,0.2-0.6,0.3c-0.1,0.1-0.1,0.3-0.1,0.7v8.4h0.1c0.3,0,0.5,0.1,0.8,0.1c0.4,0,1.1,0.1,2.1,0.1
							c0.8,0,1.7-0.1,2.5-0.3c0.7-0.2,1.3-0.5,1.8-1c0.5-0.4,0.9-1,1.1-1.6c0.2-0.6,0.3-1.3,0.3-2c0-0.7-0.1-1.4-0.3-2
							C65.3,2.7,64.9,2.2,64.4,1.8z M63.8,5.4c0,0.9-0.3,1.7-0.9,2.3c-0.8,0.6-1.7,0.9-2.7,0.8H59V2.3h1.2c0.5,0,1.1,0.1,1.6,0.2
							c0.4,0.1,0.8,0.3,1.1,0.7c0.3,0.3,0.5,0.6,0.7,1C63.8,4.6,63.8,5,63.8,5.4L63.8,5.4z"/>
						<path id="XMLID_307_" class="st0" d="M74.5,2.3L74.5,2.3c0.1-0.1,0.1-0.2,0.2-0.3c0.1-0.2,0.1-0.4,0.1-0.6
							c0-0.6-0.3-0.9-1-0.9h-5.1c-0.8,0-1.1,0.3-1.1,1.1V10h7.1V8.3h-5.2V6.1h4.8V6c0-0.1,0.1-0.1,0.1-0.3c0.1-0.2,0.1-0.4,0.1-0.6
							c0-0.6-0.3-0.9-1-0.9h-4.1V2.3L74.5,2.3z"/>
						<path id="XMLID_306_" class="st0" d="M84.8,0.7c-0.2-0.1-0.4-0.1-0.7-0.1c-0.3,0-0.5,0.1-0.8,0.2C83.1,1,83,1.3,82.9,1.6
							c-0.2,0.4-0.4,1-0.7,1.6s-0.4,1.2-0.7,1.8s-0.4,1.2-0.7,1.8c-0.2,0.4-0.3,0.7-0.4,1.1c-0.2-0.4-0.4-0.9-0.7-1.5
							c-0.2-0.7-0.6-1.3-0.8-2S78.4,3,78.2,2.5c-0.2-0.7-0.4-1.1-0.6-1.6V0.8h-0.1c-0.1,0-0.2,0-0.2-0.1c-0.2-0.1-0.4-0.1-0.6-0.1
							c-0.4-0.1-0.8,0.2-0.9,0.7c0,0.1,0,0.1,0,0.2c0,0.2,0,0.5,0.1,0.7c0.1,0.2,0.1,0.4,0.2,0.7c0.1,0.2,0.1,0.5,0.2,0.7
							c0.1,0.4,0.3,0.7,0.4,1c0.2,0.5,0.3,0.9,0.6,1.3c0.2,0.4,0.4,0.9,0.7,1.5c0.2,0.4,0.4,1,0.7,1.5s0.4,1,0.7,1.5v0.1h2v-0.1
							c0.2-0.4,0.4-0.9,0.7-1.5c0.2-0.6,0.5-1.1,0.8-1.7c0.3-0.6,0.6-1.2,0.8-1.8l0.7-1.7c0.2-0.6,0.4-1,0.6-1.3
							c0.1-0.3,0.2-0.6,0.3-0.9V1.2l-0.1-0.1C85.1,0.9,84.9,0.8,84.8,0.7z"/>
						<path id="XMLID_305_" class="st0" d="M93.3,2.3L93.3,2.3c0.1-0.1,0.1-0.2,0.2-0.3c0.1-0.2,0.1-0.4,0.1-0.6
							c0-0.6-0.3-0.9-1-0.9h-5.1c-0.8,0-1.1,0.3-1.1,1.1V10h7.1V8.3h-5.2V6.1h4.8V6c0-0.1,0.1-0.1,0.1-0.3c0.1-0.2,0.1-0.4,0.1-0.6
							c0-0.6-0.3-0.9-1-0.9h-4.1V2.3L93.3,2.3z"/>
						<path id="XMLID_304_" class="st0" d="M97.3,0.8h-0.1c-0.1,0-0.2-0.1-0.3-0.1c-0.2,0-0.4-0.1-0.6-0.1c-0.3,0-0.5,0.1-0.8,0.2
							c-0.2,0.1-0.4,0.4-0.3,0.7V10h6.7V8.3h-4.7V0.8H97.3z"/>
						<path id="XMLID_373_" class="st0" d="M111,1.8c-0.4-0.4-1-0.8-1.6-1c-1.3-0.6-2.7-0.6-4,0c-0.6,0.2-1.1,0.6-1.6,1
							c-0.4,0.5-0.8,1-1.1,1.6c-0.2,0.6-0.4,1.3-0.3,2c0,0.7,0.1,1.4,0.3,2c0.3,0.6,0.6,1.1,1.1,1.6c0.4,0.4,1,0.8,1.6,1
							c0.6,0.2,1.3,0.4,2,0.3c0.7,0,1.4-0.1,2-0.3c0.6-0.2,1.1-0.6,1.6-1c0.4-0.5,0.8-1,1.1-1.6c0.2-0.6,0.4-1.3,0.3-2
							c0-0.7-0.1-1.4-0.3-2C111.8,2.8,111.5,2.3,111,1.8z M110.5,5.4c0,0.4-0.1,0.8-0.2,1.2c-0.1,0.4-0.4,0.7-0.7,1
							c-0.3,0.3-0.6,0.5-1,0.7c-0.8,0.3-1.7,0.3-2.5,0c-0.4-0.1-0.7-0.4-1-0.7l-0.7-1c-0.1-0.4-0.2-0.8-0.2-1.2
							c0-0.5,0.1-0.9,0.2-1.3c0.1-0.4,0.3-0.7,0.7-1c0.3-0.3,0.6-0.5,1-0.7c0.8-0.3,1.7-0.3,2.5,0c0.4,0.1,0.7,0.4,1,0.7
							c0.2,0.3,0.5,0.6,0.7,1C110.4,4.5,110.5,4.9,110.5,5.4z"/>
						<path id="XMLID_370_" class="st0" d="M120.7,1.3c-0.9-0.7-2.1-1-3.2-0.9h-1.6c-0.3,0-0.5,0-0.8,0.1c-0.2,0-0.5,0.1-0.6,0.3
							c-0.2,0.1-0.2,0.4-0.2,0.8v8.5h1.9V6.9h1c0.8,0.1,1.7,0,2.5-0.2c0.5-0.1,0.9-0.4,1.3-0.7c0.3-0.3,0.6-0.6,0.8-1
							c0.1-0.4,0.2-0.9,0.2-1.3C122,2.8,121.5,1.9,120.7,1.3z M119.9,3.7c0,0.2,0,0.4-0.1,0.6c-0.1,0.2-0.2,0.3-0.3,0.4L118.7,5
							c-0.4,0.1-0.8,0.1-1.2,0.1c-0.4,0-0.8,0-1.1-0.1h-0.4V2.1h1.3c0.4,0,0.8,0,1.2,0.1c0.3,0.1,0.5,0.2,0.8,0.3
							c0.2,0.1,0.3,0.3,0.3,0.4C119.8,3.2,119.9,3.4,119.9,3.7z"/>
						<path id="XMLID_299_" class="st0" d="M133.9,8.8c0-0.5,0-1-0.1-1.6c0-0.6-0.1-1.1-0.1-1.8l-0.2-3.3c0-0.4,0-0.8-0.1-1.1V0.9
							l0,0c-0.1-0.1-0.3-0.2-0.4-0.2c-0.2-0.1-0.4-0.1-0.7-0.1c-0.3,0-0.5,0.1-0.8,0.2c-0.2,0.1-0.3,0.3-0.6,0.7
							c-0.1,0.3-0.3,0.6-0.4,0.9l-0.7,1.3L129.1,5c-0.1,0.3-0.3,0.5-0.4,0.8c-0.2-0.3-0.3-0.6-0.4-0.9c-0.2-0.4-0.6-1-0.8-1.6
							l-1.2-2.5l0,0c-0.1-0.1-0.3-0.2-0.4-0.2c-0.2-0.1-0.5-0.1-0.8-0.1c-0.3,0-0.5,0.1-0.8,0.2c-0.2,0.1-0.3,0.4-0.4,0.8
							c0,0.3,0,0.7-0.1,1c0,0.5,0,1-0.1,1.5c0,0.6-0.1,1.1-0.1,1.7s-0.1,1.1-0.1,1.7s-0.1,1-0.1,1.5V10h1.9V8.9l0.1-1.2
							c0.1-0.9,0.2-1.8,0.2-2.7c0-0.4,0-0.8,0.1-1.2V3.6l0.3,0.7c0.2,0.4,0.4,0.9,0.7,1.5l0.7,1.3c0.2,0.4,0.3,0.8,0.4,1v0.1h1.6V8
							c0.2-0.2,0.3-0.4,0.3-0.7c0.1-0.3,0.3-0.6,0.4-0.9c0.1-0.3,0.3-0.7,0.4-1l0.4-1c0.1-0.3,0.3-0.6,0.4-0.9l0,0l0.1,1.2
							c0,0.5,0,1,0.1,1.5c0,0.5,0,1,0.1,1.5c0,0.4,0,0.8,0.1,1.2v1h1.9V9.7C133.9,9.6,133.9,9.3,133.9,8.8z"/>
						<path id="XMLID_298_" class="st0" d="M142.9,2.3L142.9,2.3c0.1-0.1,0.1-0.2,0.2-0.3c0.1-0.2,0.1-0.4,0.1-0.6
							c0-0.6-0.3-0.9-1-0.9h-5.1c-0.8,0-1.1,0.3-1.1,1.1V10h7.1V8.3h-5.2V6.1h4.8V6c0-0.1,0.1-0.1,0.1-0.3c0.1-0.2,0.1-0.4,0.1-0.6
							c0-0.6-0.3-0.9-1-0.9h-4.1V2.3L142.9,2.3z"/>
						<path id="XMLID_297_" class="st0" d="M152.9,0.7c-0.2,0-0.4-0.1-0.6-0.1c-0.2,0-0.5,0.1-0.7,0.2c-0.2,0.1-0.2,0.3-0.2,0.7v5.2
							c-0.1-0.2-0.2-0.3-0.3-0.6c-0.2-0.4-0.6-0.8-0.8-1.2l-0.9-1.3c-0.3-0.4-0.6-0.8-0.9-1.2l-0.7-1c-0.2-0.2-0.3-0.4-0.4-0.6l0,0
							c-0.1,0-0.2-0.1-0.3-0.2c-0.2-0.1-0.4-0.1-0.7-0.1c-0.3,0-0.5,0.1-0.8,0.2c-0.2,0.2-0.4,0.5-0.3,0.8v8.5h1.9V3.5
							c0.1,0.2,0.3,0.4,0.4,0.6c0.3,0.4,0.6,0.8,0.9,1.2l1.7,2.6c0.2,0.4,0.5,0.8,0.8,1.1l0.7,1h1.9V0.7h-0.1
							C153.3,0.7,153.1,0.7,152.9,0.7z"/>
						<path id="XMLID_296_" class="st0" d="M162.5,0.6h-7.7v0.1c-0.1,0.1-0.1,0.2-0.1,0.3c-0.1,0.2-0.1,0.4-0.1,0.6
							c0,0.6,0.3,0.9,1,0.9h2.5v7.7h1.9V2.5h3.2V2.3c0-0.1,0.1-0.1,0.1-0.3c0-0.2,0.1-0.4,0.1-0.6c0-0.5-0.3-0.9-0.7-0.9
							C162.6,0.6,162.5,0.6,162.5,0.6z"/>
						<path id="XMLID_362_" class="st0" d="M175.2,5.1l0.1-0.1c0.1-0.1,0.3-0.2,0.4-0.4s0.2-0.3,0.3-0.6c0.1-0.2,0.1-0.5,0.1-0.8
							c0-0.3-0.1-0.7-0.2-1c-0.1-0.4-0.4-0.7-0.7-0.9c-0.4-0.3-0.9-0.5-1.3-0.6c-0.7-0.1-1.3-0.2-2-0.2h-1.7c-0.4,0-0.7,0.1-0.9,0.1
							c-0.2,0-0.5,0.1-0.6,0.3c-0.2,0.1-0.2,0.4-0.2,0.8v8.5h3.6c0.7,0,1.5-0.1,2.2-0.2c0.5-0.1,0.9-0.3,1.3-0.6
							c0.3-0.2,0.6-0.5,0.7-0.9c0.1-0.4,0.2-0.7,0.2-1.1c0-0.5-0.1-1-0.4-1.5C175.8,5.6,175.5,5.2,175.2,5.1z M174.2,6.5
							c0.1,0.1,0.2,0.2,0.2,0.3s0.1,0.3,0.1,0.4c0,0.2,0,0.4-0.1,0.6l-0.3,0.3c-0.2,0.1-0.4,0.2-0.7,0.2c-0.4,0.1-0.7,0.1-1.1,0.1
							h-1.8V6.1h2.5c0.3,0,0.5,0,0.8,0.1C173.9,6.3,174.1,6.4,174.2,6.5L174.2,6.5z M174.1,3.7c0,0.1-0.1,0.2-0.2,0.3
							c-0.1,0.1-0.3,0.2-0.4,0.2c-0.2,0.1-0.5,0.1-0.8,0.1h-2.3V2.2h1.7c0.3,0,0.7,0,1,0.1c0.2,0.1,0.4,0.1,0.7,0.2l0.3,0.3
							c0.1,0.1,0.1,0.3,0.1,0.4C174.2,3.4,174.2,3.5,174.1,3.7C174.1,3.7,174.1,3.7,174.1,3.7L174.1,3.7z"/>
						<path id="XMLID_359_" class="st0" d="M186.9,8.8c-0.2-0.5-0.4-1.1-0.7-1.6c-0.2-0.6-0.4-1.2-0.8-1.9c-0.2-0.7-0.6-1.3-0.8-1.9
							s-0.6-1.1-0.8-1.7l-0.6-1.1l0,0l-0.1-0.1c-0.1,0-0.1-0.1-0.2-0.1s-0.2-0.1-0.3-0.1h-0.3c-0.3,0-0.6,0.1-0.9,0.2
							c-0.3,0.2-0.5,0.5-0.6,0.8c-0.3,0.7-0.7,1.5-1,2.2c-0.3,0.7-0.6,1.5-0.9,2.2c-0.3,0.7-0.6,1.5-0.9,2.1
							c-0.2,0.7-0.6,1.3-0.8,1.9l-0.1,0.2h2V9.9c0.1-0.3,0.2-0.7,0.3-1c0.1-0.3,0.3-0.8,0.4-1.2h4.2c0.1,0.1,0.1,0.3,0.2,0.4
							c0.1,0.2,0.2,0.4,0.2,0.7s0.1,0.5,0.2,0.7c0.1,0.2,0.1,0.3,0.2,0.4V10h2.1l-0.1-0.2C187.3,9.6,187.1,9.3,186.9,8.8z
							 M183.7,5.9h-2.9c0.1-0.2,0.2-0.6,0.3-0.8c0.2-0.4,0.3-0.7,0.4-1.1c0.1-0.3,0.3-0.7,0.4-1c0.1-0.2,0.1-0.3,0.2-0.4
							c0,0.1,0.1,0.2,0.1,0.3c0.1,0.3,0.3,0.7,0.4,1s0.3,0.8,0.4,1.1C183.4,5.3,183.6,5.6,183.7,5.9L183.7,5.9z"/>
						<path id="XMLID_290_" class="st0" d="M196.3,0.7c-0.2,0-0.4-0.1-0.6-0.1c-0.2,0-0.5,0.1-0.7,0.2c-0.2,0.1-0.2,0.3-0.2,0.7v5.2
							c-0.1-0.2-0.2-0.3-0.3-0.6c-0.2-0.4-0.6-0.8-0.8-1.2l-0.9-1.3c-0.3-0.4-0.6-0.8-0.9-1.2l-0.7-1c-0.2-0.2-0.3-0.4-0.4-0.6l0,0
							c-0.1,0-0.2-0.1-0.3-0.2c-0.2-0.1-0.4-0.1-0.7-0.1c-0.3,0-0.5,0.1-0.8,0.2c-0.2,0.2-0.4,0.5-0.3,0.8v8.5h1.9V3.5
							c0.1,0.2,0.3,0.4,0.4,0.6c0.3,0.4,0.6,0.8,0.9,1.2l1.7,2.6c0.2,0.4,0.5,0.8,0.8,1.1l0.7,1h1.9V0.7h-0.1
							C196.7,0.7,196.5,0.7,196.3,0.7z"/>
						<path id="XMLID_289_" class="st0" d="M207,9.8c-0.6-0.9-1.4-1.7-2.1-2.5c-0.8-0.8-1.6-1.5-2.3-2.2c0.1-0.1,0.3-0.2,0.4-0.4
							c0.2-0.2,0.6-0.4,0.9-0.8l0.9-0.8c0.3-0.2,0.6-0.6,0.9-0.8c0.2-0.2,0.4-0.4,0.7-0.6c0.2-0.2,0.3-0.2,0.3-0.3l0.1-0.1l-0.1-0.1
							l-0.3-0.3c-0.5-0.3-1.1-0.3-1.6,0c-0.2,0.1-0.5,0.3-0.7,0.4c-0.3,0.2-0.5,0.4-0.7,0.7c-0.4,0.3-0.7,0.6-1,0.9l-1,1
							c-0.2,0.2-0.3,0.3-0.6,0.4V0.9h-0.1c-0.1,0-0.2-0.1-0.3-0.1c-0.2,0-0.4-0.1-0.6-0.1c-0.3,0-0.5,0.1-0.8,0.2
							c-0.2,0.1-0.4,0.4-0.3,0.7v8.6h1.9v-4c0.3,0.2,0.6,0.5,0.9,0.8c0.4,0.3,0.8,0.7,1.1,1.1c0.3,0.3,0.7,0.8,1,1.1
							s0.6,0.7,0.8,0.9v0.1h2.5L207,9.8z"/>
					</g>
				</g>
				<g id="XMLID_322_" transform="translate(0.112 0)">
					<circle id="XMLID_288_" class="st0" cx="196.7" cy="2.3" r="1.3"/>
					<g id="XMLID_338_">
						<path id="XMLID_287_" class="st0" d="M95,1.8v13.6h2.6V0.6c-0.4-0.1-0.7-0.2-1.1-0.2C95.3,0.3,95,0.8,95,1.8z"/>
						<path id="XMLID_286_" class="st0" d="M89.5,1.8v9.4c0.1,1-0.5,1.9-1.5,2c-0.2,0-0.3,0-0.5,0h-1.3V3.9
							c-0.4-0.1-0.7-0.2-1.1-0.2c-1,0-1.5,0.4-1.5,1.5v8H81c-0.9,0-1.3,0.3-1.3,1.2c0,0.3,0.1,0.7,0.1,1h7.7c1.2,0,2.4-0.4,3.2-1.2
							c0.8-0.8,1.2-1.9,1.2-3V0.6c-0.4-0.1-0.7-0.2-1.1-0.2C89.9,0.3,89.5,0.8,89.5,1.8z"/>
						<path id="XMLID_349_" class="st0" d="M29,7.4c0.6,0,1.2,0.2,1.8,0.4c0.6,0.2,0.9,0.1,1.1-0.2c0.2-0.4,0.5-0.9,0.7-1.3
							c-1.1-0.6-2.2-1-3.5-1.1c-2.9,0-4.8,1.7-4.8,4.5v3.6h-3.9c-1.1,0-2-0.9-2-2c0,0,0,0,0,0V5.7c-0.1,0-0.2,0-0.3-0.1
							c-0.3-0.1-0.5-0.1-0.8-0.1c-1,0-1.5,0.4-1.5,1.5v4.2c0.1,1-0.5,1.9-1.5,2c-0.2,0-0.3,0-0.5,0h-2.5c-1.3,0-1.9-0.7-2-2V5.9
							C8.9,5.8,8.5,5.7,7.9,5.6c-0.5-0.1-1-0.2-1.6-0.2C5.8,5.3,5.2,5.2,4.7,5.2c-0.8,0-1.5,0.1-2.2,0.3C1.9,5.8,1.4,6.1,1,6.6
							C0.6,7,0.4,7.6,0.2,8.1C0,8.8,0,9.4,0,10c-0.1,1,0.1,1.9,0.4,2.8c0.3,0.6,0.6,1.1,1.1,1.6C2,14.7,2.5,15,3,15.2
							c1.1,0.3,2.3,0.3,3.3,0c0.6-0.1,1.1-0.4,1.5-0.8L8,14.2l0.1-0.1l0.1,0.1c0.6,0.8,1.7,1.1,3.2,1.1h2.7c1.1,0,2.2-0.3,3.1-1h0.2
							c0.8,0.7,1.9,1,3,1h12.2c0.1-0.3,0.1-0.7,0.1-1c0-0.9-0.3-1.2-1.2-1.2h-4.4V9.3C26.9,8.3,27.8,7.4,29,7.4z M6.9,12.4L6.9,12.4
							c-0.6,0.5-1.4,0.7-2.1,0.7c-0.6,0-1.2-0.2-1.7-0.7c-0.5-0.6-0.7-1.4-0.6-2.2c0-0.5,0.1-0.9,0.2-1.3c0.1-0.3,0.3-0.6,0.6-0.9
							c0.2-0.2,0.5-0.4,0.8-0.4c0.3-0.1,0.7-0.1,1-0.1h0.8c0.3,0,0.7,0.1,1,0.1H7v4.9H6.9z"/>
						<path id="XMLID_346_" class="st0" d="M71.9,5.1c-1.7,0-3.3,0.5-4.7,1.3l0.4,1.3C67.7,8,67.8,8.1,68,8.1c0.2,0.1,0.5,0.1,0.8,0
							c1-0.5,2-0.8,3.1-0.8c1.2-0.1,2.3,0.6,2.8,1.7c0.4,1,0.5,2.1,0.4,3.2v0.7H63.8c-1.1,0-2-0.9-2-2c0,0,0,0,0,0V5.5
							c-0.4-0.1-0.7-0.2-1.1-0.2c-1,0-1.5,0.4-1.5,1.5v4.2c0.1,1-0.5,1.9-1.5,2c-0.2,0-0.3,0-0.5,0h-1.9c-1.3,0.1-2.4-0.8-2.6-2
							c-0.1-1.1-0.5-2.2-1.3-3c-0.9-0.8-2.1-1.2-3.3-1.1c-2.8,0-4.4,1.3-4.7,4.1c-0.1,1.3-0.9,1.9-2.5,1.9h-2.8
							c-0.6,0-0.9-0.2-0.9-0.9V0.2c-0.4-0.1-0.7-0.2-1.1-0.2c-1,0-1.5,0.4-1.5,1.5v10.6c-0.1,1.6,1.1,3,2.7,3.1c0.1,0,0.3,0,0.4,0
							H41c0.9,0,1.8-0.3,2.6-0.9l0.1-0.1v0.1c1.5,2.3,4.5,3,6.9,1.6c0.7-0.4,1.3-1.1,1.7-1.8v-0.1l0.1,0.1c0.6,0.6,1.5,1,2.3,1H57
							c1.1,0,2.2-0.3,3.1-1h0.2c0.8,0.7,1.9,1,3,1h12.8c0.6,0,1.1-0.5,1.1-1.1v-1.8c0.1-1.6-0.2-3.2-0.9-4.7
							C75.9,6,74.2,5.1,71.9,5.1z M48.3,14.7c-0.9,0-2.1-0.3-2.1-2.8s1.2-2.7,2.1-2.7s2.1,0.3,2.1,2.7
							C50.3,14.4,49.2,14.7,48.3,14.7z"/>
						<path id="XMLID_281_" class="st0" d="M204.6,6.9v4.2c0.1,1-0.5,1.9-1.5,2c-0.2,0-0.3,0-0.5,0h-2.7c-1,0.1-1.9-0.5-2-1.5
							c0-0.2,0-0.3,0-0.5V5.7c-0.4-0.1-0.7-0.2-1.1-0.2c-1,0-1.5,0.4-1.5,1.5v4.2c0.1,1-0.5,1.9-1.5,2c-0.2,0-0.3,0-0.5,0h-2.1
							c-1.7,0-2.5-0.9-2.5-2.7V0.6c-0.4-0.1-0.7-0.2-1.1-0.2c-1,0-1.5,0.4-1.5,1.5v9.4c0.1,1-0.5,1.9-1.5,2c-0.2,0-0.3,0-0.5,0h-6.8
							c-1,0.1-1.9-0.5-2-1.5c0-0.2,0-0.3,0-0.5V5.7c-0.4-0.1-0.7-0.2-1.1-0.2c-1,0-1.5,0.4-1.5,1.5v4.5c0,2.5,1.7,4,4.2,4h7.3
							c1.3,0.1,2.6-0.4,3.5-1.3l0.1-0.1l0.1,0.1c0.8,0.9,2,1.4,3.2,1.3h2.5c1.1,0,2.2-0.3,3.1-1h0.2c0.8,0.7,1.9,1,3,1h2.9
							c1.2,0,2.4-0.4,3.2-1.2c0.8-0.8,1.2-1.9,1.2-3V5.6c-0.4-0.1-0.7-0.2-1.1-0.2C205,5.5,204.6,5.9,204.6,6.9z"/>
						<path id="XMLID_280_" class="st0" d="M166.2,1.8v13.6h2.6V0.6c-0.4-0.1-0.7-0.2-1.1-0.2C166.5,0.3,166.2,0.8,166.2,1.8z"/>
						<path id="XMLID_340_" class="st0" d="M160.8,1.8v9.4c0.1,1-0.5,1.9-1.5,2c-0.2,0-0.3,0-0.5,0h-2.5c-1,0.1-1.9-0.5-2-1.5
							c0-0.2,0-0.3,0-0.5V5.7c-0.4-0.1-0.7-0.2-1.1-0.2c-1,0-1.5,0.4-1.5,1.5v4.2c0.1,1-0.5,1.9-1.5,2c-0.2,0-0.3,0-0.5,0h-2.6
							c-1,0.1-1.9-0.5-2-1.5c0-0.2,0-0.3,0-0.5V5.7c-0.4-0.1-0.7-0.2-1.1-0.2c-1,0-1.5,0.4-1.5,1.5v4.2c0.1,1-0.5,1.9-1.5,2
							c-0.2,0-0.3,0-0.5,0h-2.2c-1.3,0.1-2.4-0.8-2.6-2c-0.1-1.1-0.5-2.2-1.3-3c-0.9-0.8-2.1-1.2-3.3-1.1c-2.8,0-4.4,1.3-4.7,4.1
							c-0.1,1.3-1,2-2.5,2h-1.9c-1,0.1-1.9-0.5-2-1.5c0-0.2,0-0.3,0-0.5V5.7c-0.4-0.1-0.7-0.2-1.1-0.2c-1,0-1.5,0.4-1.5,1.5v4.2
							c0.1,1-0.5,1.9-1.5,2c-0.2,0-0.3,0-0.5,0h-2.7c-1.3,0-1.9-0.7-1.9-2V5.9c-0.4-0.1-0.9-0.2-1.5-0.3c-0.5-0.1-1-0.2-1.6-0.2
							c-0.6-0.1-1.1-0.1-1.7-0.1c-0.8,0-1.5,0.1-2.2,0.3c-0.6,0.2-1.1,0.5-1.5,1c-0.4,0.5-0.6,1-0.8,1.6c-0.2,0.6-0.3,1.3-0.2,1.9
							c-0.1,1,0.1,1.9,0.4,2.8c0.3,0.6,0.6,1.1,1.1,1.6c0.4,0.3,0.9,0.6,1.5,0.8c1.1,0.3,2.3,0.3,3.3,0c0.6-0.1,1.1-0.4,1.5-0.8
							l0.2-0.2l0.1-0.1l0.1,0.1c0.6,0.8,1.7,1.1,3.2,1.1h2.9c1.1,0,2.2-0.3,3.1-1h0.2c0.8,0.7,1.9,1,3,1h2.1c0.9,0,1.8-0.3,2.6-0.9
							l0.1-0.1v0.1c1.5,2.3,4.5,3,6.9,1.6c0.7-0.4,1.3-1.1,1.7-1.8v-0.1l0.1,0.1c0.6,0.6,1.5,1,2.3,1.1h2.7c1.1,0,2.2-0.3,3.1-1h0.2
							c0.8,0.7,1.9,1,3,1h2.8c1.1,0,2.2-0.3,3.1-1h0.2c0.8,0.7,1.9,1,3,1h2.7c1.2,0,2.4-0.4,3.2-1.2c0.8-0.8,1.2-1.9,1.2-3V0.6
							c-0.4-0.1-0.7-0.2-1.1-0.2C161.1,0.3,160.8,0.8,160.8,1.8z M108.7,12.4L108.7,12.4c-0.6,0.5-1.4,0.7-2.1,0.7
							c-0.6,0-1.2-0.2-1.7-0.7c-0.5-0.6-0.7-1.4-0.6-2.2c0-0.5,0.1-0.9,0.2-1.3c0.1-0.3,0.3-0.6,0.6-0.9c0.2-0.2,0.5-0.4,0.8-0.4
							c0.3-0.1,0.7-0.1,1-0.1h0.8c0.3,0,0.7,0.1,1,0.1h0.1v4.9H108.7z M131.5,14.7c-0.5,0-1-0.1-1.5-0.4c-0.5-0.6-0.7-1.4-0.7-2.2
							c0-2.5,1.2-2.7,2.1-2.7c0.5,0,1,0.1,1.5,0.4c0.5,0.6,0.7,1.4,0.7,2.2C133.5,14.4,132.3,14.7,131.5,14.7L131.5,14.7z"/>
						<path id="XMLID_276_" class="st0" d="M182.6,8.8c0-0.4-0.2-0.6-0.6-0.6h-1.9v-1c0-0.5,0.4-0.9,0.9-0.9c0,0,0,0,0,0
							c0.3,0,0.5,0.1,0.8,0.2c0.2,0.1,0.4,0.1,0.6-0.1l0.3-0.7c-0.5-0.3-1-0.5-1.6-0.6c-1-0.1-2,0.6-2.1,1.7c0,0.1,0,0.2,0,0.3v1.9
							h3.6L182.6,8.8z"/>
					</g>
					<circle id="XMLID_275_" class="st0" cx="201.4" cy="18.3" r="1.3"/>
					<path id="XMLID_274_" class="st0" d="M6.6,3.7C7.4,3.7,8,3,8,2.2c0-0.8-0.7-1.4-1.4-1.3c0,0,0,0,0,0c-0.7,0-1.3,0.6-1.3,1.3
						C5.1,2.9,5.6,3.6,6.3,3.7C6.4,3.7,6.5,3.7,6.6,3.7z"/>
					<path id="XMLID_273_" class="st0" d="M2.9,3.7c0.8,0,1.4-0.7,1.5-1.5c0-0.8-0.7-1.4-1.4-1.3c0,0,0,0,0,0
						c-0.8,0-1.4,0.6-1.5,1.3C1.4,3,2,3.7,2.9,3.7C2.8,3.7,2.9,3.7,2.9,3.7z"/>
					<path id="XMLID_272_" class="st0" d="M18.9,17c-0.7,0-1.3,0.6-1.3,1.3c0,0.8,0.6,1.4,1.3,1.5c0,0,0,0,0,0
						c0.8,0,1.4-0.7,1.5-1.5C20.3,17.5,19.6,16.9,18.9,17C18.9,17,18.9,17,18.9,17z"/>
					<path id="XMLID_271_" class="st0" d="M15.3,17c-0.7,0-1.3,0.5-1.3,1.2c0,0,0,0.1,0,0.1c0,0.8,0.6,1.4,1.3,1.5c0,0,0,0,0,0
						c0.8,0,1.4-0.7,1.5-1.5C16.7,17.5,16,17,15.3,17z"/>
					<path id="XMLID_270_" class="st0" d="M58.8,3.7c0.8,0,1.4-0.7,1.5-1.5c0-0.8-0.7-1.4-1.4-1.3c0,0,0,0,0,0
						c-0.7,0-1.3,0.5-1.3,1.2c0,0,0,0.1,0,0.1c-0.1,0.7,0.4,1.3,1.1,1.4C58.6,3.7,58.7,3.7,58.8,3.7z"/>
					<path id="XMLID_269_" class="st0" d="M62.4,3.7c0.8,0,1.4-0.7,1.5-1.5c0-0.8-0.7-1.4-1.4-1.3c0,0,0,0,0,0
						c-0.7,0-1.3,0.6-1.3,1.3C61,3,61.5,3.6,62.2,3.7C62.3,3.7,62.3,3.7,62.4,3.7z"/>
					<path id="XMLID_268_" class="st0" d="M72.4,17c-0.7,0-1.3,0.6-1.3,1.3c0,0.8,0.6,1.4,1.3,1.5c0.8,0,1.4-0.7,1.5-1.5
						C73.8,17.5,73.2,16.9,72.4,17C72.4,17,72.4,17,72.4,17z"/>
					<path id="XMLID_267_" class="st0" d="M121,17c-0.7,0-1.3,0.6-1.3,1.3c0,0.8,0.6,1.4,1.3,1.5c0.8,0,1.4-0.7,1.5-1.5
						C122.3,17.6,121.7,17,121,17z"/>
					<path id="XMLID_266_" class="st0" d="M117.3,17c-0.7,0-1.3,0.5-1.3,1.2c0,0,0,0.1,0,0.1c0,0.8,0.6,1.4,1.3,1.5
						c0.8,0,1.4-0.7,1.5-1.5C118.7,17.5,118.1,16.9,117.3,17C117.3,17,117.3,17,117.3,17z"/>
					<path id="XMLID_265_" class="st0" d="M144.1,3.7c0.8,0,1.4-0.7,1.5-1.5c0-0.8-0.7-1.4-1.4-1.3c0,0,0,0,0,0
						c-0.8,0-1.4,0.6-1.5,1.3C142.7,3,143.3,3.6,144.1,3.7z"/>
					<path id="XMLID_264_" class="st0" d="M151.3,3.7c0.8,0,1.4-0.7,1.5-1.5c0-0.8-0.7-1.4-1.4-1.3c0,0,0,0,0,0
						c-0.7,0-1.3,0.5-1.3,1.2c0,0,0,0.1,0,0.1C149.9,3,150.5,3.6,151.3,3.7C151.3,3.7,151.3,3.7,151.3,3.7z"/>
					<path id="XMLID_263_" class="st0" d="M155,3.7c0.8,0,1.4-0.7,1.5-1.5c0-0.8-0.7-1.4-1.4-1.3c0,0,0,0,0,0
						c-0.7,0-1.3,0.6-1.3,1.3c-0.1,0.7,0.4,1.3,1.1,1.4C154.8,3.7,154.9,3.7,155,3.7z"/>
					<path id="XMLID_262_" class="st0" d="M108.2,3.7c0.8,0,1.4-0.7,1.5-1.5c0-0.8-0.7-1.4-1.4-1.3c0,0,0,0,0,0
						c-0.7,0-1.3,0.6-1.3,1.3C106.9,3,107.5,3.6,108.2,3.7C108.2,3.7,108.2,3.7,108.2,3.7z"/>
					<path id="XMLID_261_" class="st0" d="M104.7,3.7c0.8,0,1.4-0.7,1.5-1.5c0-0.8-0.7-1.4-1.4-1.3c0,0,0,0,0,0
						c-0.8,0-1.4,0.6-1.5,1.3C103.2,3,103.8,3.7,104.7,3.7C104.6,3.7,104.6,3.7,104.7,3.7z"/>
				</g>
			</g>
			
				<linearGradient id="XMLID_2_" gradientUnits="userSpaceOnUse" x1="-276.1172" y1="353.422" x2="-275.1262" y2="354.419" gradientTransform="matrix(56.5793 0 0 -84.6284 15849.5547 29997.6621)">
				<stop  offset="0" style="stop-color:#0074B0"/>
				<stop  offset="0.5" style="stop-color:#21B5BA"/>
				<stop  offset="1" style="stop-color:#8DC154"/>
			</linearGradient>
			<path id="XMLID_260_" class="st1" d="M242.2,37.6h8.3c4.7,0,8.6-3.8,8.6-8.6v-8.3c0-1.1,0.9-2,2-2c0,0,0,0,0,0h8.3
				c4.7,0,8.6-3.8,8.6-8.6V0h-10.2c-4.7,0-8.6,3.8-8.6,8.6v8.3c0,1.1-0.9,2-2,2c0,0,0,0,0,0h-8.3c-4.7,0-8.6,3.8-8.6,8.6v8.1
				c0,1.1-0.9,2-2,2c0,0,0,0,0,0h-8.4c-4.7,0-8.6,3.8-8.6,8.6v10.2c0,15.6,12.6,28.3,28.2,28.3c15.6,0,28.3-12.6,28.3-28.2
				c0,0,0-0.1,0-0.1V37.5h-10.2c-4.7,0-8.6,3.8-8.6,8.6v10.2c0,5.2-4.2,9.4-9.4,9.4s-9.4-4.2-9.4-9.4l0,0V39.6c-0.1-1,0.7-1.9,1.7-2
				C242,37.6,242.1,37.6,242.2,37.6z"/>
		</g>
	</g>
</g>
<g>
	<path class="st2" d="M5.3,104.3c0-1.1,0.1-2.2,0.4-3.3l2.1-0.4c-0.3,1.2-0.5,2.3-0.5,3.5c0,2.5,0.9,3.7,2.7,3.7
		c1.6,0,2.5-1.2,2.5-3.5v-6.5h2v3.3c0,0.9,0.1,1.6,0.3,2c0.2,0.4,0.6,0.6,1.2,0.6c0.6,0,1-0.2,1.2-0.6s0.4-1.1,0.4-2v-4h1.9v4.6
		c0,0.8,0.2,1.3,0.5,1.6c0.3,0.2,0.9,0.4,1.9,0.4h0.5c0.1-0.8,0.1-1.6,0.1-2.4c0-1.8-0.2-3.4-0.6-4.9l1.9-0.3
		c0.4,1.7,0.6,3.4,0.6,5.1c0,0.8,0,1.7-0.1,2.5h1.9v1.6h-4.5c-1.1,0-1.9-0.1-2.5-0.3c-0.5-0.2-0.9-0.5-1.1-1
		c-0.2,0.5-0.6,0.9-1.1,1.2c-0.4,0.2-0.8,0.3-1.2,0.3c-0.7,0-1.2-0.2-1.5-0.7c0,1.6-0.4,2.9-1.3,3.7c-0.8,0.7-1.9,1-3.2,1
		C6.8,109.4,5.3,107.7,5.3,104.3z"/>
	<path class="st2" d="M26,103.7h3.5v-6.9h2v6.9h1.9v1.6H26V103.7z M28.3,108.7c-0.2,0.2-0.5,0.3-0.8,0.3c-0.3,0-0.5-0.1-0.7-0.3
		c-0.2-0.2-0.3-0.5-0.3-0.8c0-0.3,0.1-0.5,0.3-0.8s0.5-0.3,0.7-0.3c0.3,0,0.6,0.1,0.8,0.3c0.2,0.2,0.3,0.5,0.3,0.8
		C28.6,108.2,28.5,108.5,28.3,108.7z M31.1,108.7c-0.2,0.2-0.5,0.3-0.7,0.3c-0.3,0-0.6-0.1-0.8-0.3c-0.2-0.2-0.3-0.5-0.3-0.8
		c0-0.3,0.1-0.5,0.3-0.8c0.2-0.2,0.5-0.3,0.8-0.3c0.3,0,0.5,0.1,0.7,0.3s0.3,0.5,0.3,0.8C31.4,108.2,31.3,108.5,31.1,108.7z"/>
	<path class="st2" d="M33.1,103.7h2.6v-6.9h2v8.5h-4.6V103.7z M34,94.1c0.5,0,0.9,0,1.2,0.1c-0.3-0.1-0.4-0.4-0.4-0.8
		c0-0.5,0.2-1,0.6-1.3c0.4-0.4,1.1-0.6,1.9-0.6c0.2,0,0.5,0,1,0.1L38,92.7c-0.4-0.1-0.7-0.1-0.9-0.1c-0.6,0-0.9,0.2-0.9,0.7
		c0,0.5,0.4,0.8,1.3,0.8h1v1.2H34V94.1z"/>
	<path class="st2" d="M37.7,109.6l0.2-1.6c0.5,0.2,1,0.3,1.6,0.3c0.7,0,1.3-0.2,1.6-0.6c0.4-0.4,0.6-1.2,0.6-2.2v-8.7h2v6.9h1.9v1.6
		h-1.9v0.1c0,3-1.4,4.5-4.3,4.5C38.8,109.8,38.2,109.8,37.7,109.6z"/>
	<path class="st2" d="M45.3,103.7h2.4V92.6h2v12.7h-4.4V103.7z"/>
	<path class="st2" d="M52.9,92.6h2v12.7h-2V92.6z"/>
	<path class="st2" d="M68.1,92.6h2V104c0,3.6-1.5,5.4-4.6,5.4c-3,0-4.5-1.7-4.5-5.1c0-1.1,0.1-2.2,0.4-3.3l2.1-0.4
		c-0.3,1.2-0.5,2.3-0.5,3.5c0,2.5,0.9,3.7,2.7,3.7c1.6,0,2.5-1.2,2.5-3.6V92.6z"/>
	<path class="st2" d="M72.1,109.5l0.1-1.6c1,0.2,1.9,0.3,2.8,0.3c2.2,0,3.3-0.9,3.3-2.6v-0.4h-1.6c-3.2,0-4.8-1.4-4.8-4.2
		c0-1.3,0.4-2.3,1.1-3.1c0.8-0.9,2-1.4,3.5-1.4c1.4,0,2.6,0.2,3.7,0.6v6.5h1.9v1.6h-1.9v0.2c0,1.2-0.4,2.2-1.2,3
		c-0.9,0.9-2.3,1.3-4.2,1.3C74,109.8,73,109.7,72.1,109.5z M78.4,98.5c-0.5-0.3-1.2-0.4-2-0.4c-0.8,0-1.4,0.3-1.8,0.8
		c-0.4,0.5-0.7,1.2-0.7,2c0,1.9,1,2.8,3,2.8h1.4V98.5z"/>
	<path class="st2" d="M88.8,105.2c-2,0-3.4-0.5-4.1-1.6c-0.3,1-1.3,1.6-2.8,1.6h-0.3v-1.6c0.7,0,1.2-0.2,1.6-0.5
		c0.4-0.4,0.6-1.1,0.6-2.2c0-1.2,0.4-2.3,1.2-3.1c0.8-0.9,2-1.3,3.4-1.3c2.6,0,4,1.4,4,4.1v3h1.7v1.6H88.8z M90.3,100.9
		c0-1.9-0.7-2.8-2.2-2.8c-0.8,0-1.4,0.3-1.8,0.8c-0.4,0.5-0.7,1.1-0.7,2c0,1.9,1,2.8,3,2.8h1.6V100.9z"/>
	<path class="st2" d="M100.5,105.2c-2,0-3.4-0.5-4.1-1.6c-0.3,1-1.3,1.6-2.8,1.6h-0.3v-1.6c0.7,0,1.2-0.2,1.6-0.5
		c0.4-0.4,0.6-1.1,0.6-2.2c0-1.2,0.4-2.3,1.2-3.1c0.8-0.9,2-1.3,3.4-1.3c2.6,0,4,1.4,4,4.1v3h3.5V92.6h2v12.7H100.5z M102.1,100.9
		c0-1.9-0.7-2.8-2.2-2.8c-0.8,0-1.4,0.3-1.8,0.8c-0.4,0.5-0.7,1.1-0.7,2c0,1.9,1,2.8,3,2.8h1.6V100.9z"/>
	<path class="st2" d="M112.6,92.6h2v12.7h-2V92.6z"/>
	<path class="st2" d="M116.3,109.5l0.1-1.6c1,0.2,1.9,0.3,2.8,0.3c2.2,0,3.3-0.9,3.3-2.6v-0.4h-1.6c-3.2,0-4.8-1.4-4.8-4.2
		c0-1.3,0.4-2.3,1.1-3.1c0.8-0.9,2-1.4,3.5-1.4c1.4,0,2.6,0.2,3.7,0.6v8.3c0,1.2-0.4,2.2-1.2,3c-0.9,0.9-2.3,1.3-4.2,1.3
		C118.2,109.8,117.2,109.7,116.3,109.5z M122.6,98.5c-0.5-0.3-1.2-0.4-2-0.4c-0.8,0-1.4,0.3-1.8,0.8c-0.4,0.5-0.7,1.2-0.7,2
		c0,1.9,1,2.8,3,2.8h1.4V98.5z"/>
	<path class="st2" d="M136.9,105.2c-2.3,0-3.9-0.5-5-1.4c-1-0.9-1.5-2.2-1.5-3.9c0-1.1,0.2-2,0.5-2.9l2.1-0.4
		c-0.4,0.9-0.7,1.9-0.7,3c0,1.4,0.3,2.4,1,3c0.7,0.7,1.9,1,3.7,1h1.4v-6.8c1.1-0.2,2.2-0.3,3.4-0.3c1.5,0,2.5,0.4,3.2,1.1
		c0.6,0.6,0.9,1.6,0.9,2.9v3.2h1.7v1.6h-3.6v-4.5c0-1-0.2-1.6-0.5-2c-0.4-0.4-0.9-0.6-1.8-0.6c-0.5,0-0.9,0-1.4,0.1v7H136.9z
		 M135.9,108.7c-0.2,0.2-0.5,0.3-0.8,0.3c-0.3,0-0.5-0.1-0.7-0.3c-0.2-0.2-0.3-0.5-0.3-0.8c0-0.3,0.1-0.5,0.3-0.8
		c0.2-0.2,0.5-0.3,0.7-0.3c0.3,0,0.6,0.1,0.8,0.3c0.2,0.2,0.3,0.5,0.3,0.8C136.2,108.2,136.1,108.5,135.9,108.7z M138.7,108.7
		c-0.2,0.2-0.5,0.3-0.8,0.3s-0.6-0.1-0.8-0.3c-0.2-0.2-0.3-0.5-0.3-0.8c0-0.3,0.1-0.5,0.3-0.8c0.2-0.2,0.5-0.3,0.8-0.3
		s0.5,0.1,0.8,0.3c0.2,0.2,0.3,0.5,0.3,0.8C139,108.2,138.9,108.5,138.7,108.7z"/>
	<path class="st2" d="M147.5,103.7h7.2c0.1-0.5,0.1-1.1,0.1-1.6c0-1.3-0.3-2.2-0.8-2.8c-0.6-0.6-1.6-0.9-2.9-0.9c-0.8,0-1.4,0-2,0.1
		v-1.5c0.8-0.1,1.5-0.2,2.2-0.2c2,0,3.4,0.4,4.3,1.3c0.8,0.8,1.3,2.1,1.3,3.9c0,0.6,0,1.2-0.1,1.7h1.5v1.6h-10.7V103.7z M151,108.7
		c-0.2-0.2-0.3-0.5-0.3-0.8s0.1-0.6,0.3-0.8c0.2-0.2,0.5-0.3,0.8-0.3c0.3,0,0.6,0.1,0.8,0.3c0.2,0.2,0.3,0.5,0.3,0.8
		s-0.1,0.6-0.3,0.8c-0.2,0.2-0.5,0.3-0.8,0.3C151.4,109,151.2,108.9,151,108.7z"/>
	<path class="st2" d="M157.9,103.7h3.5v-6.9h2v6.9h1.9v1.6h-7.4V103.7z M160.2,108.7c-0.2,0.2-0.5,0.3-0.8,0.3
		c-0.3,0-0.5-0.1-0.7-0.3c-0.2-0.2-0.3-0.5-0.3-0.8c0-0.3,0.1-0.5,0.3-0.8s0.5-0.3,0.7-0.3c0.3,0,0.6,0.1,0.8,0.3
		c0.2,0.2,0.3,0.5,0.3,0.8C160.5,108.2,160.4,108.5,160.2,108.7z M163,108.7c-0.2,0.2-0.5,0.3-0.7,0.3c-0.3,0-0.6-0.1-0.8-0.3
		c-0.2-0.2-0.3-0.5-0.3-0.8c0-0.3,0.1-0.5,0.3-0.8c0.2-0.2,0.5-0.3,0.8-0.3c0.3,0,0.5,0.1,0.7,0.3s0.3,0.5,0.3,0.8
		C163.3,108.2,163.2,108.5,163,108.7z"/>
	<path class="st2" d="M165,103.7h2.6v-6.9h2v8.5H165V103.7z M166.2,94.9c-0.2-0.2-0.3-0.5-0.3-0.8c0-0.3,0.1-0.5,0.3-0.8
		s0.5-0.3,0.7-0.3c0.3,0,0.6,0.1,0.8,0.3c0.2,0.2,0.3,0.5,0.3,0.8c0,0.3-0.1,0.6-0.3,0.8c-0.2,0.2-0.5,0.3-0.8,0.3
		C166.6,95.2,166.4,95.1,166.2,94.9z M169,94.9c-0.2-0.2-0.3-0.5-0.3-0.8c0-0.3,0.1-0.5,0.3-0.8s0.5-0.3,0.7-0.3
		c0.3,0,0.6,0.1,0.8,0.3s0.3,0.5,0.3,0.8c0,0.3-0.1,0.6-0.3,0.8s-0.5,0.3-0.8,0.3C169.4,95.2,169.2,95.1,169,94.9z"/>
	<path class="st2" d="M172.7,92.6h2v12.7h-2V92.6z"/>
	<path class="st2" d="M181.3,105.2L181.3,105.2c0,3.1-1.4,4.6-4.3,4.6c-0.6,0-1.2-0.1-1.7-0.2l0.2-1.6c0.5,0.2,1,0.3,1.6,0.3
		c0.7,0,1.3-0.2,1.6-0.6c0.4-0.4,0.6-1.2,0.6-2.2v-8.7h2v6.9h3.9v-6.9h2v6.9h1.9v1.6H181.3z M183.7,94.9c-0.2-0.2-0.3-0.5-0.3-0.8
		c0-0.3,0.1-0.5,0.3-0.8s0.5-0.3,0.8-0.3c0.3,0,0.5,0.1,0.8,0.3c0.2,0.2,0.3,0.5,0.3,0.8c0,0.3-0.1,0.6-0.3,0.8
		c-0.2,0.2-0.5,0.3-0.8,0.3C184.2,95.2,183.9,95.1,183.7,94.9z M186.5,94.9c-0.2-0.2-0.3-0.5-0.3-0.8c0-0.3,0.1-0.5,0.3-0.8
		s0.5-0.3,0.7-0.3c0.3,0,0.5,0.1,0.7,0.3c0.2,0.2,0.3,0.5,0.3,0.8c0,0.3-0.1,0.6-0.3,0.8c-0.2,0.2-0.4,0.3-0.7,0.3
		C187,95.2,186.7,95.1,186.5,94.9z"/>
	<path class="st2" d="M188.9,103.7h0.8c0.6,0,1.1-0.2,1.3-0.5c0.3-0.3,0.4-1,0.4-1.9v-3.5h2v3.3c0,1,0.1,1.7,0.2,2
		c0.2,0.4,0.6,0.7,1.2,0.7c1.1,0,1.7-0.9,1.7-2.6v-4h1.9v4.6c0,0.8,0.2,1.4,0.5,1.6c0.3,0.2,0.9,0.4,1.9,0.4h0.5
		c0.1-0.9,0.1-1.7,0.1-2.4c0-1.7-0.2-3.4-0.6-4.9l1.9-0.3c0.4,1.6,0.6,3.3,0.6,5.1c0,1.4-0.1,2.8-0.3,4.1h-2.4
		c-1.1,0-1.9-0.1-2.4-0.3c-0.5-0.2-0.9-0.6-1.2-1.1c-0.4,1-1.3,1.5-2.7,1.5c-1.3,0-2.1-0.5-2.4-1.5c-0.3,0.9-1.1,1.4-2.4,1.4h-0.8
		V103.7z"/>
	<path class="st2" d="M208.9,102.2h-2l-2.7-9.5l2-0.3L208.9,102.2z M204.9,105.2v-1.6h5.6V92.6h2v12.7H204.9z"/>
	<path class="st2" d="M215.7,92.6h2v12.7h-2V92.6z"/>
	<path class="st2" d="M230.3,105.2c-2.3,0-3.9-0.5-5-1.4c-1-0.9-1.5-2.2-1.5-3.9c0-1.1,0.2-2,0.5-2.9l2.1-0.4
		c-0.4,0.9-0.7,1.9-0.7,3c0,1.4,0.3,2.4,1,3c0.7,0.7,1.9,1,3.7,1h4.1V92.6h2v11.1h1.9v1.6H230.3z M228.4,96.7c0.5,0,0.9,0,1.2,0.1
		c-0.3-0.1-0.4-0.4-0.4-0.8c0-0.5,0.2-1,0.6-1.3c0.4-0.4,1.1-0.6,1.9-0.6c0.2,0,0.5,0,1,0.1l-0.2,1.2c-0.4-0.1-0.7-0.1-0.9-0.1
		c-0.6,0-0.9,0.2-0.9,0.7c0,0.5,0.4,0.8,1.3,0.8h1v1.2h-4.5V96.7z"/>
	<path class="st2" d="M238.2,103.7h3.5v-6.9h2v8.5h-5.5V103.7z M240.5,108.7c-0.2,0.2-0.5,0.3-0.8,0.3c-0.3,0-0.5-0.1-0.7-0.3
		c-0.2-0.2-0.3-0.5-0.3-0.8c0-0.3,0.1-0.5,0.3-0.8s0.5-0.3,0.7-0.3c0.3,0,0.6,0.1,0.8,0.3c0.2,0.2,0.3,0.5,0.3,0.8
		C240.8,108.2,240.7,108.5,240.5,108.7z M243.3,108.7c-0.2,0.2-0.5,0.3-0.7,0.3c-0.3,0-0.6-0.1-0.8-0.3c-0.2-0.2-0.3-0.5-0.3-0.8
		c0-0.3,0.1-0.5,0.3-0.8c0.2-0.2,0.5-0.3,0.8-0.3c0.3,0,0.5,0.1,0.7,0.3s0.3,0.5,0.3,0.8C243.6,108.2,243.5,108.5,243.3,108.7z"/>
	<path class="st2" d="M251.2,105.2L251.2,105.2c0,3.1-1.4,4.6-4.3,4.6c-0.6,0-1.2-0.1-1.7-0.2l0.2-1.6c0.5,0.2,1,0.3,1.6,0.3
		c0.7,0,1.3-0.2,1.6-0.6c0.4-0.4,0.6-1.2,0.6-2.2v-8.7h2v6.9h2.2c0.6,0,1.1-0.2,1.3-0.5c0.3-0.3,0.4-1,0.4-1.9v-3.5h2v3.3
		c0,1,0.1,1.7,0.2,2c0.2,0.4,0.6,0.7,1.2,0.7c1.1,0,1.7-0.9,1.7-2.6v-4h1.9v4.6c0,0.8,0.2,1.4,0.5,1.6c0.3,0.2,0.9,0.4,1.9,0.4h0.5
		c0.1-0.9,0.1-1.7,0.1-2.4c0-1.7-0.2-3.4-0.6-4.9l1.9-0.3c0.4,1.6,0.6,3.3,0.6,5.1c0,0.8,0,1.7-0.1,2.5h1.9v1.6h-4.5
		c-1.1,0-1.9-0.1-2.4-0.3c-0.5-0.2-0.9-0.6-1.2-1.1c-0.4,1-1.3,1.5-2.7,1.5c-1.3,0-2.1-0.5-2.4-1.5c-0.3,0.9-1.1,1.4-2.4,1.4H251.2z
		 M258.9,94.9c-0.2-0.2-0.3-0.5-0.3-0.8c0-0.3,0.1-0.5,0.3-0.8s0.5-0.3,0.8-0.3c0.3,0,0.5,0.1,0.8,0.3c0.2,0.2,0.3,0.5,0.3,0.8
		c0,0.3-0.1,0.6-0.3,0.8c-0.2,0.2-0.5,0.3-0.8,0.3C259.3,95.2,259.1,95.1,258.9,94.9z M260.3,92.6c-0.2-0.2-0.3-0.4-0.3-0.7
		c0-0.3,0.1-0.5,0.3-0.7c0.2-0.2,0.4-0.3,0.7-0.3s0.5,0.1,0.7,0.3c0.2,0.2,0.3,0.4,0.3,0.7c0,0.3-0.1,0.5-0.3,0.7
		c-0.2,0.2-0.4,0.3-0.7,0.3C260.7,92.9,260.5,92.8,260.3,92.6z M261.7,94.9c-0.2-0.2-0.3-0.5-0.3-0.8c0-0.3,0.1-0.5,0.3-0.8
		s0.5-0.3,0.7-0.3c0.3,0,0.5,0.1,0.7,0.3c0.2,0.2,0.3,0.5,0.3,0.8c0,0.3-0.1,0.6-0.3,0.8c-0.2,0.2-0.4,0.3-0.7,0.3
		C262.1,95.2,261.9,95.1,261.7,94.9z"/>
	<path class="st2" d="M268.7,103.7h2.4V92.6h2v12.7h-4.4V103.7z"/>
	<path class="st2" d="M276.3,92.6h2v12.7h-2V92.6z"/>
</g>
</svg>
