<svg xmlns="http://www.w3.org/2000/svg" width="175.149" height="186.663" viewBox="0 0 175.149 186.663">
  <g id="Group_2" data-name="Group 2" transform="translate(-48.697 -29.182)">
    <path id="Path_5" data-name="Path 5" d="M216.229,77.311c-.182-.809-.712-1.07-.818-.38a12.523,12.523,0,0,1-5.5,8.859c-6.762,3.9-11.739,5.428-16.115,7.055-2.629.979-7.382,2.488-10.638,5.6a12,12,0,0,0-3.6,9.649c.04.491.4.862.942.317,9.884-8.762,24.6-10.113,33.742-20.035.382-.416.659-.252.407.256-5.819,11.723-18.594,17.316-28.276,25.428-6.292,5.139-10.005,12.617-7.777,21.092.494.9.922,1.058,1.37.541a7.39,7.39,0,0,0,.789-1.714c5.446-11.814,17.449-19.9,26.908-28.7,7.359-7.354,10.889-17.538,8.569-27.97" transform="translate(-6.732 -9.646)" fill="#b09d6d"/>
    <path id="Path_6" data-name="Path 6" d="M208.1,68.437l1.174-.563c-2.124,7.556-11.359,5.347-16.339,9.41,2.238-5.948,9.754-6.713,15.165-8.847M197.983,80.652c1.786-.457,6.622-1.25,7.961-2.009,3.911-2.218,4.12-7.889,5.127-11.972,4.712-4.286,4.049-11.276,3.06-15.513-.162-.581-.406-.725-.592-.656a.434.434,0,0,0-.248.342,2.524,2.524,0,0,0,.111.964c.893,3.708-1.19,7.935-4.059,9.854a11.876,11.876,0,0,1-3.279,1.251c-3.782,1.051-8.025,2.609-11.064,5.251-5.494,4.183-5.689,12.106-5.556,18.33,1.453-3.428,4.908-4.905,8.536-5.842" transform="translate(-9.071 -4.34)" fill="#b09d6d"/>
    <path id="Path_7" data-name="Path 7" d="M191.415,173.442c1.448-12.048,12.081-20.119,17.806-30.31a13.855,13.855,0,0,0-1.788-14.662s-.146-.162-.268-.171-.22.134-.186.358c.067.445.1.644.131.958,1.083,10.464-9.149,17.388-14.8,25.161a27.233,27.233,0,0,0-4.131,10.517c-.1.573-.556.33-.707-.214-4.529-16.132,5.008-29.183,17.609-42.932,6.449-6.909,13.222-14.134,17.061-22.554,4.13-11.5,1.363-24.822-3.505-35.034-1.19-2.137-2.731-6.43-3.742-6.137-.168.174-.173.507-.065.948.209.858,3.325,6.62,3.759,7.484,4.916,9.763,4.467,22.741-1.171,30.809-9.008,15.544-28.207,25.808-33.709,43-4.278,12.651.227,26.064,7.337,36.3,1.262,1.089.225-2.37.371-3.527" transform="translate(-7.568 -5.953)" fill="#b09d6d"/>
    <path id="Path_8" data-name="Path 8" d="M231.755,130.423c5.44-12.336,5.156-29.605-1.608-41.158l-.509-.134c7.883,14.579.927,30.946-5.935,44.3-2.711,5.5-9.872,18.088-15.052,32.776a104.687,104.687,0,0,0-6.037,25.171,79.619,79.619,0,0,0,4.583,33.1c1.263,3.518,2.75,4.868,2.071,2.115a87.716,87.716,0,0,1-1.983-32.915c4.254-22.679,16.244-42.018,24.468-63.251" transform="translate(-11.71 -12.212)" fill="#b09d6d"/>
    <path id="Path_9" data-name="Path 9" d="M215.231,35.866c.282-.787.238-1.6.462-2.4,1.311-3.3-3.047-2.71-4.409-4.283-1.064,1.437-1.069,3.633-1.559,5.163l3.507,1.767L212,40.569c1.075.569,2.324.971,3.371,1.63a5.683,5.683,0,0,1,.735.563c.279.233.734.635,1.472,1.338a44.34,44.34,0,0,1,.908-5.07c.184-1.879-2.223-2.078-3.254-3.164" transform="translate(-13.207)" fill="#fff"/>
    <path id="Path_10" data-name="Path 10" d="M193.313,218.653a15.549,15.549,0,0,1,2.7,4.56c-.555,2.05-2.71,2.709-4.1,4.04l-2.519-3.81c-.944-1.157,1.019-1.506,1.583-2.175,4.725-2.015-1.019-4.439-1.4-6.79a16.977,16.977,0,0,0,3.688-3.285c.928,1.359,2.183,2.438,2.814,3.934.194,1.873-2.113,2.172-2.773,3.524" transform="translate(-9.015 -37.077)" fill="#fff"/>
    <g id="Group_3" data-name="Group 3" transform="translate(-96.194 -86.876)">
      <path id="Path_11" data-name="Path 11" d="M191.679,320.337V319.2l-4.881.062c-.073.166-7.422,16.678-9.983,20.977-2.026,3.4-4.931,7.31-9.434,7.31h0a11.839,11.839,0,0,1-5.4-1.555l-.464.455.074.073a8.708,8.708,0,0,0,5.872,2.023l.243,0c3.846-.076,9.383-2.207,13.92-11.957,4.4-9.461,7.608-16.192,7.571-16.25Z" transform="translate(-1.854 -55.248)" fill="#b09d6d"/>
      <path id="Path_12" data-name="Path 12" d="M175.393,320.288c1.06,0,1.447,1.212,1.455,1.236,0,0,2.083,4.7,4.145,9.333l.085.2,1.019-2.062c-.864-2.013-1.13-2.62-1.374-3.19-.363-.833-.69-1.579-2.905-6.6h-4.153v1.107l.108,0s.69-.018,1.62-.018" transform="translate(-3.207 -55.248)" fill="#b09d6d"/>
      <path id="Path_13" data-name="Path 13" d="M200.218,322.624c.6,1.36,1.664,3.8,2.725,6.2H197.5c1.056-2.4,2.127-4.843,2.721-6.2m8.081,11.631c-.7-1.617-2.678-6.234-4.258-9.916l-1.8-4.2h0l0,0-.466-.937h-5.217v1.107l.107,0s.7-.018,1.617-.018a1.5,1.5,0,0,1,1.189.618c-.506,1.19-4.962,11.666-5.733,13.348-1.018,2.2-2.2,3.1-4.09,3.1h-.1v1.083h7.906v-.985h-1.5a1.841,1.841,0,0,1-1.308-.726,1.991,1.991,0,0,1,.158-1.85c.43-.923,1.319-2.922,2.18-5.029l6.377-.062.8,1.794c.635,1.427,1.174,2.638,1.48,3.3a2,2,0,0,1,.155,1.853,1.809,1.809,0,0,1-1.293.722h-1.516v.985h9.5v-1.083h-.1c-2.088,0-2.865-.239-4.081-3.1" transform="translate(-4.978 -55.248)" fill="#b09d6d"/>
      <path id="Path_14" data-name="Path 14" d="M222.069,319.2h-8.588v1.239h1.3c.073,0,1.786.08,1.786,3.432v14.564h2.66V320.482h2.762c.068,0,6.772.129,6.772,7.91,0,7.5-5.5,7.72-6.164,7.72h-.854v1.353h1.045c2.037,0,8.693-.632,8.693-8.742,0-9.063-7.842-9.521-9.415-9.521" transform="translate(-7.645 -55.248)" fill="#b09d6d"/>
      <path id="Path_15" data-name="Path 15" d="M242.322,322.634c.6,1.36,1.664,3.8,2.725,6.192h-5.439Zm28.4-2.353h1.3V319.2h-5.76l.005,9.625h-7.844l0-9.625h-5.7v1.239h1.3c.064,0,1.57.066,1.76,2.818V334.79c0,2.231-1.081,2.526-1.887,2.555-1.7-.073-2.406-.507-3.511-3.089l-6.053-14.113-.009,0,.007-.013-.472-.93h-5.216v1.107l.108,0s.7-.018,1.621-.018a1.5,1.5,0,0,1,1.186.622l-.216.51c-1.581,3.713-4.874,11.436-5.516,12.835-1.023,2.2-2.208,3.1-4.094,3.1h-.1v1.083h7.917v-.985h-1.508a1.819,1.819,0,0,1-1.3-.719,2.02,2.02,0,0,1,.154-1.861c.35-.749,1.007-2.231,1.766-3.935l.415-1.09,6.375-.062.546,1.232c.741,1.669,1.383,3.116,1.727,3.859a2,2,0,0,1,.161,1.853,1.806,1.806,0,0,1-1.293.722H245.1v.985h15.5v-.753h-.106a1.844,1.844,0,0,1-1.606-.631,3.96,3.96,0,0,1-.467-2.284l.011-4.922h7.844l.01,4.943a4.064,4.064,0,0,1-.464,2.291,1.822,1.822,0,0,1-1.6.621h-.1v.736h7.917V337.43h-1.309c-.073,0-1.789-.086-1.789-3.44l.008-10.263c0-3.349,1.715-3.443,1.785-3.446" transform="translate(-9.67 -55.248)" fill="#b09d6d"/>
      <path id="Path_16" data-name="Path 16" d="M150.642,320.142h1.892a4.9,4.9,0,0,1,3.418,1.17,3.9,3.9,0,0,1,1.285,3.033,4.172,4.172,0,0,1-1.156,3.106,4.35,4.35,0,0,1-3.208,1.166l-2.23-.006Zm20.249,18.295v-.788h-.1a1.826,1.826,0,0,1-1.6-.625,4.063,4.063,0,0,1-.464-2.294l.007-15.528h-5.758v1.024h1.3c.017,0,1.789.087,1.789,3.44l.006,10.263c0,3.356-1.716,3.443-1.789,3.443h-.2v-.014l-.109,0c-.146.011-.266.011-.38.011v.1h0l-.153-.1a1.375,1.375,0,0,1-1.051-.472A16.979,16.979,0,0,1,160,333.6a25.25,25.25,0,0,0-2.163-3.209,7.9,7.9,0,0,0-1.52-1.413c2.507-.812,3.78-2.391,3.78-4.7a4.536,4.536,0,0,0-1.758-3.644,7.207,7.207,0,0,0-4.68-1.437h-8.773v1.027H146.2c.071,0,1.782.09,1.782,3.436v10.263c0,3.356-1.709,3.44-1.779,3.44h-1.313v1.069h7.922v-.788h-.1a1.835,1.835,0,0,1-1.607-.634,4.037,4.037,0,0,1-.46-2.284v-5.116h1.438a3.482,3.482,0,0,1,2.213.8,15.966,15.966,0,0,1,2.818,3.718,33.23,33.23,0,0,0,2.977,4.31Z" transform="translate(0 -55.248)" fill="#b09d6d"/>
      <path id="Path_17" data-name="Path 17" d="M268.222,284.108l-.055.122c-.075.166-7.348,16.58-9.912,20.873-2.013,3.37-4.887,7.243-9.324,7.243a10.66,10.66,0,0,1-5.2-1.562l-.139-.076-.65.653.146.146a8.6,8.6,0,0,0,5.928,2.037h.236c3.877-.087,9.444-2.236,13.985-11.985,4.094-8.8,7.029-14.984,7.465-15.9l2.586-.018v-1.537Z" transform="translate(-10.929 -51.337)" fill="#fff"/>
      <path id="Path_18" data-name="Path 18" d="M245.253,308.873l-2.207-2.211-1.916,1.916-1.913-1.916-2.207,2.211,2.207,2.211,1.913-1.909,1.916,1.909Z" transform="translate(-10.268 -53.851)" fill="#fff"/>
      <path id="Path_19" data-name="Path 19" d="M154.24,280.195l1.932,1.933L158.4,279.9l-2.229-2.218L154.24,279.6l-1.939-1.926-2.218,2.218,2.218,2.232Z" transform="translate(-0.579 -50.62)" fill="#fff"/>
      <path id="Path_20" data-name="Path 20" d="M189.15,298.333l-.013-6.66A7.457,7.457,0,0,0,187,286.737c-1.714-1.728-4.283-2.6-7.638-2.6l-7.465-.01v4.556h1.01v-1.95a1.008,1.008,0,0,1,.259-.677,1.432,1.432,0,0,1,1.064-.374h5.4c.256,0,6.281.066,6.281,5.991l.012,6.606c0,.731-.118,3.1-1.667,3.1l-11.451,0a2.691,2.691,0,0,1-1.387-.423,3.032,3.032,0,0,1-1.211-2.749V298h-1.5v4.772h23.464v-1.371H190.28c-.011,0-1.067-.139-1.13-3.072" transform="translate(-2.654 -51.338)" fill="#fff"/>
      <path id="Path_21" data-name="Path 21" d="M153.9,300.925a6.1,6.1,0,0,1-3.2-1.007c-1.893-1.263-2.851-3.5-2.851-6.657,0-7.723,6.426-7.862,6.7-7.865h6.386l.012,15.525Zm4.277-19.458v1.021h1.79c.226,0,.959.1.959,1.384l-6.461.06c-1.6,0-9.572.468-9.572,9.652,0,8.268,6.776,8.909,8.852,8.909h10.093l0-21.026Z" transform="translate(0 -51.042)" fill="#fff"/>
      <path id="Path_22" data-name="Path 22" d="M250.578,301.076h-.208a3.1,3.1,0,0,1-2.284-.724,1.577,1.577,0,0,1-.471-1.071V287.716h-6v1.014l1.973,0c.224,0,.963.1.963,1.4l.029,10.937H206.059a6.479,6.479,0,0,1-4.858-1.749c-2.005-2.061-1.913-5.345-1.878-6.577.005-.16.01-.284.006-.364l-.026-8.525c0-1.284.755-1.426,1.073-1.378h1.94v-1.016h-6l0,10.919c-.128,3.7.588,6.3,2.186,7.955,2.083,2.152,5.258,2.152,7.577,2.152h44.507Z" transform="translate(-5.73 -51.04)" fill="#fff"/>
    </g>
  </g>
</svg>
